<svg xmlns="http://www.w3.org/2000/svg" viewBox="0 0 722.68 275.61"><defs><style>.a{fill:#fff;}</style></defs><title>logoDece</title><path class="a" d="M129.87,218.64l-10.53,19.94H73.91V184.84H63.67v33.8H62.28L51.75,238.58H6.6v-156a31.25,31.25,0,0,1,3.61-13.85L18,54.38C21.56,41.36,33.47,30,47.05,30h54.56c16.35,0,29.64,15.51,29.64,31.85V218.64Zm-4.16-5.54V61.86c0-13.3-10.8-26.31-24.1-26.31H47.05c-13,0-24.66,13.29-24.66,26.31V213.1H58.12V159.36H89.7V213.1ZM90.81,125H58.12V67.4H90.81ZM63.67,92.88v26.59H75V92.88Z" transform="translate(-6.6 -4.52)"/><path class="a" d="M270,212.54l-8.31,15.79c-3.6,6.65-10.25,10.25-19.12,10.25h-33v21.61h-1.38l-10.53,19.94H152.58V78.76l10.25-19.12V57.15h83.93c16.34,0,29.91,12.47,29.91,29.09V192.88C276.67,201.74,274.18,208.39,270,212.54Zm1.11-126.3c0-13.3-11.08-23.55-24.38-23.55H168.37v192H204.1V213.1h49.58c10.81,0,17.46-6.93,17.46-20.22ZM236,182.08H203.27V95.38H236Zm-27.15-61.22v55.68h11.36V120.86Z" transform="translate(-6.6 -4.52)"/><path class="a" d="M420.43,218.64l-10.52,19.94h-44.6V122H354v96.67h-1.39l-10.52,19.94H297.73V26.13L308,7V4.52h45.7V57.15H391.9c16.35,0,29.92,12.47,29.92,29.09v132.4Zm-4.15-5.54V86.24c0-13.3-11.08-23.55-24.38-23.55H348.14V10.06H313.52v203h34.9V96.48H381.1V213.1Z" transform="translate(-6.6 -4.52)"/><path class="a" d="M562.81,161.85l-7.48,13.3h8l.28,43.49h-1.39l-10.52,19.94H466.14c-14.41,0-25.21-8.59-25.21-24.93V78.76l10.25-19.12V57.15h88.36c16.34,0,29.92,12.47,29.92,29.09v55.67C569.46,150.77,567,157.42,562.81,161.85Zm1.11-75.61c0-13.3-11.08-23.55-24.38-23.55H456.72V192.88c0,13.29,8.86,20.22,20.5,20.22H558.1l-.28-32.41H492.45V162.13h54c10.8,0,17.45-6.92,17.45-20.22Zm-35.18,45.7H491.62V96.21h37.12Zm-31.58-10v4.43h15.51V122Z" transform="translate(-6.6 -4.52)"/><path class="a" d="M619.59,240.24l-.83,2.22-41-11.91,10.8-19.94-1.11-.28,32.13-53.18c-13.85-24.66-30.75-54.3-44.59-78.39l10.8-20-1.11-1.66h50.14l22.43,41c10-16.07,20.78-34.07,30.19-49.59l41.28,10.81L717.09,78.76l-.83,1.94-21.88,36.84-12.19,20.77c2.77,5,5.82,9.42,8.87,14.68l38.22,65.65h-2.22l-10.52,19.94H668.9l-24.38-40.16L641.2,204l-1.67,2.49-1.66,3.05-6.09,10-1.66,3.32h-.28c-3.32,5.82-6.92,11.64-10,17.18l-.28.27h.28l-.28.56ZM720.14,62.69l-29.92-7.75L657,109.5,631.5,62.69H594.11l43.49,76.17L596.05,207l31.57,9.14,28-48.19,27.15,45.15h36.56L675.54,138Z" transform="translate(-6.6 -4.52)"/></svg>