<svg width="253" height="253" viewBox="0 0 253 253" version="1.1" xmlns="http://www.w3.org/2000/svg" xmlns:xlink="http://www.w3.org/1999/xlink">
<title>Register Button</title>
<desc>Created using Figma</desc>
<g id="Canvas" transform="translate(-858 204)">
<g id="Register Button">
<g id="Ellipse" filter="url(#filter0_iiii)">
<use xlink:href="#path0_fill" transform="translate(858 -204)" fill="#00435C"/>
</g>
<g id="register" filter="url(#filter1_d)">
<use xlink:href="#path1_fill" transform="translate(925 -108)" fill="#F2F2F2"/>
</g>
</g>
</g>
<defs>
<filter id="filter0_iiii" filterUnits="userSpaceOnUse" x="838" y="-224" width="293" height="293" color-interpolation-filters="sRGB">
<feFlood flood-opacity="0" result="BackgroundImageFix"/>
<feBlend mode="normal" in="SourceGraphic" in2="BackgroundImageFix" result="shape"/>
<feColorMatrix in="SourceAlpha" type="matrix" values="0 0 0 0 0 0 0 0 0 0 0 0 0 0 0 0 0 0 255 0" result="hardAlpha"/>
<feOffset dx="-20" dy="0"/>
<feGaussianBlur stdDeviation="30"/>
<feComposite in2="hardAlpha" operator="arithmetic" k2="-1" k3="1"/>
<feColorMatrix type="matrix" values="0 0 0 0 0 0 0 0 0 0.189583 0 0 0 0 0.26 0 0 0 1 0"/>
<feBlend mode="normal" in2="shape" result="effect1_innerShadow"/>
<feColorMatrix in="SourceAlpha" type="matrix" values="0 0 0 0 0 0 0 0 0 0 0 0 0 0 0 0 0 0 255 0" result="hardAlpha"/>
<feOffset dx="20" dy="0"/>
<feGaussianBlur stdDeviation="30"/>
<feComposite in2="hardAlpha" operator="arithmetic" k2="-1" k3="1"/>
<feColorMatrix type="matrix" values="0 0 0 0 0 0 0 0 0 0.189583 0 0 0 0 0.26 0 0 0 1 0"/>
<feBlend mode="normal" in2="effect1_innerShadow" result="effect2_innerShadow"/>
<feColorMatrix in="SourceAlpha" type="matrix" values="0 0 0 0 0 0 0 0 0 0 0 0 0 0 0 0 0 0 255 0" result="hardAlpha"/>
<feOffset dx="0" dy="-20"/>
<feGaussianBlur stdDeviation="30"/>
<feComposite in2="hardAlpha" operator="arithmetic" k2="-1" k3="1"/>
<feColorMatrix type="matrix" values="0 0 0 0 0 0 0 0 0 0.189583 0 0 0 0 0.26 0 0 0 1 0"/>
<feBlend mode="normal" in2="effect2_innerShadow" result="effect3_innerShadow"/>
<feColorMatrix in="SourceAlpha" type="matrix" values="0 0 0 0 0 0 0 0 0 0 0 0 0 0 0 0 0 0 255 0" result="hardAlpha"/>
<feOffset dx="0" dy="20"/>
<feGaussianBlur stdDeviation="30"/>
<feComposite in2="hardAlpha" operator="arithmetic" k2="-1" k3="1"/>
<feColorMatrix type="matrix" values="0 0 0 0 0 0 0 0 0 0.189583 0 0 0 0 0.26 0 0 0 1 0"/>
<feBlend mode="normal" in2="effect3_innerShadow" result="effect4_innerShadow"/>
</filter>
<filter id="filter1_d" filterUnits="userSpaceOnUse" x="923" y="-96" width="125" height="43" color-interpolation-filters="sRGB">
<feFlood flood-opacity="0" result="BackgroundImageFix"/>
<feColorMatrix in="SourceAlpha" type="matrix" values="0 0 0 0 0 0 0 0 0 0 0 0 0 0 0 0 0 0 255 0"/>
<feOffset dx="0" dy="4"/>
<feGaussianBlur stdDeviation="2"/>
<feColorMatrix type="matrix" values="0 0 0 0 0 0 0 0 0 0 0 0 0 0 0 0 0 0 0.25 0"/>
<feBlend mode="normal" in2="BackgroundImageFix" result="effect1_dropShadow"/>
<feBlend mode="normal" in="SourceGraphic" in2="effect1_dropShadow" result="shape"/>
</filter>
<path id="path0_fill" d="M 253 126.5C 253 196.364 196.364 253 126.5 253C 56.636 253 0 196.364 0 126.5C 0 56.636 56.636 0 126.5 0C 196.364 0 253 56.636 253 126.5Z"/>
<path id="path1_fill" d="M 2.91063 20L 4.19062 20L 4.19062 24.16C 4.72396 22.8533 5.49729 21.8267 6.51062 21.08C 7.55063 20.3333 8.72396 19.96 10.0306 19.96C 10.8573 19.96 11.6973 20.1333 12.5506 20.48L 12.5506 21.96C 11.7773 21.3733 10.9106 21.08 9.95062 21.08C 8.99063 21.08 8.05729 21.3733 7.15062 21.96C 6.27062 22.5467 5.55062 23.3333 4.99063 24.32C 4.45729 25.3067 4.19062 26.36 4.19062 27.48L 4.19062 38L 2.91063 38L 2.91063 20ZM 23.2722 37.36C 24.6589 37.36 25.9789 37 27.2322 36.28C 28.4855 35.56 29.5255 34.5733 30.3522 33.32L 30.3522 35.36C 29.3655 36.4533 28.2855 37.2533 27.1122 37.76C 25.9389 38.24 24.6055 38.48 23.1122 38.48C 21.4589 38.48 19.8989 38.04 18.4322 37.16C 16.9922 36.28 15.8322 35.1067 14.9522 33.64C 14.0989 32.1733 13.6722 30.6133 13.6722 28.96C 13.6722 27.1733 14.0989 25.5733 14.9522 24.16C 15.8055 22.72 16.9655 21.6 18.4322 20.8C 19.9255 20 21.5789 19.6 23.3922 19.6C 26.1655 19.6 28.5255 20.6933 30.4722 22.88L 17.9122 35.28C 18.7922 36 19.6455 36.5333 20.4722 36.88C 21.2989 37.2 22.2322 37.36 23.2722 37.36ZM 14.9522 28.84C 14.9522 31.0533 15.6855 32.9467 17.1522 34.52L 28.8722 22.88C 27.9922 22.1067 27.1389 21.56 26.3122 21.24C 25.4855 20.8933 24.4989 20.72 23.3522 20.72C 21.7255 20.72 20.2722 21.08 18.9922 21.8C 17.7389 22.4933 16.7522 23.4533 16.0322 24.68C 15.3122 25.9067 14.9522 27.2933 14.9522 28.84ZM 43.1531 46.32C 41.6331 46.32 40.1531 45.9733 38.7131 45.28C 37.2731 44.5867 36.1531 43.68 35.3531 42.56L 35.3531 40.72C 36.0465 42 37.1265 43.0667 38.5931 43.92C 40.0865 44.7733 41.6065 45.2 43.1531 45.2C 45.7131 45.2 47.6865 44.44 49.0731 42.92C 50.4598 41.4267 51.1531 39.2267 51.1531 36.32L 51.1531 33.64C 50.4331 35.08 49.2998 36.2533 47.7531 37.16C 46.2331 38.04 44.6331 38.48 42.9531 38.48C 41.2465 38.48 39.6598 38.0533 38.1931 37.2C 36.7265 36.3467 35.5665 35.2 34.7131 33.76C 33.8598 32.2933 33.4331 30.72 33.4331 29.04C 33.4331 27.36 33.8598 25.8 34.7131 24.36C 35.5665 22.8933 36.7265 21.7333 38.1931 20.88C 39.6598 20.0267 41.2465 19.6 42.9531 19.6C 44.7131 19.6 46.3398 20.04 47.8331 20.92C 49.3265 21.8 50.4331 22.9867 51.1531 24.48L 51.1531 20L 52.4331 20L 52.4331 36.32C 52.4331 39.6 51.6331 42.08 50.0331 43.76C 48.4598 45.4667 46.1665 46.32 43.1531 46.32ZM 43.0331 37.36C 44.4998 37.36 45.8598 36.9867 47.1131 36.24C 48.3665 35.4667 49.3531 34.4533 50.0731 33.2C 50.8198 31.92 51.1931 30.5333 51.1931 29.04C 51.1931 27.5467 50.8198 26.1733 50.0731 24.92C 49.3531 23.64 48.3665 22.6267 47.1131 21.88C 45.8598 21.1067 44.4998 20.72 43.0331 20.72C 41.5398 20.72 40.1531 21.1067 38.8731 21.88C 37.6198 22.6267 36.6065 23.64 35.8331 24.92C 35.0865 26.1733 34.7131 27.5467 34.7131 29.04C 34.7131 30.5333 35.0865 31.92 35.8331 33.2C 36.6065 34.4533 37.6198 35.4667 38.8731 36.24C 40.1531 36.9867 41.5398 37.36 43.0331 37.36ZM 59.0409 15.88C 58.6676 15.88 58.3343 15.7467 58.0409 15.48C 57.7743 15.2133 57.6409 14.88 57.6409 14.48C 57.6409 14.1067 57.7743 13.7867 58.0409 13.52C 58.3343 13.2533 58.6676 13.12 59.0409 13.12C 59.4143 13.12 59.7343 13.2533 60.0009 13.52C 60.2943 13.7867 60.4409 14.1067 60.4409 14.48C 60.4409 14.88 60.2943 15.2133 60.0009 15.48C 59.7343 15.7467 59.4143 15.88 59.0409 15.88ZM 58.4009 20L 59.6809 20L 59.6809 38L 58.4009 38L 58.4009 20ZM 70.005 38.44C 68.725 38.44 67.5917 38.2267 66.605 37.8C 65.6183 37.3467 64.9117 36.7733 64.485 36.08L 64.485 33.96C 64.9917 35.1067 65.685 35.96 66.565 36.52C 67.445 37.0533 68.565 37.32 69.925 37.32C 71.2317 37.32 72.285 36.92 73.085 36.12C 73.885 35.2933 74.285 34.24 74.285 32.96C 74.285 31.8667 74.0583 31.0267 73.605 30.44C 73.1517 29.8267 72.4183 29.2133 71.405 28.6L 69.885 27.72C 68.7917 27.0533 67.965 26.5333 67.405 26.16C 66.8717 25.76 66.445 25.32 66.125 24.84C 65.805 24.3333 65.645 23.7467 65.645 23.08C 65.645 22.0133 66.0183 21.16 66.765 20.52C 67.5117 19.88 68.485 19.56 69.685 19.56C 71.1517 19.56 72.3783 19.8933 73.365 20.56L 73.365 22.32C 72.5383 21.2267 71.3517 20.68 69.805 20.68C 68.9517 20.68 68.2583 20.8933 67.725 21.32C 67.1917 21.7467 66.925 22.2933 66.925 22.96C 66.925 23.5467 67.085 24.0667 67.405 24.52C 67.725 24.9467 68.165 25.3467 68.725 25.72C 69.3117 26.0933 70.2717 26.6533 71.605 27.4C 72.965 28.1733 73.965 28.9733 74.605 29.8C 75.245 30.6 75.565 31.6533 75.565 32.96C 75.565 34.6133 75.0183 35.9467 73.925 36.96C 72.8583 37.9467 71.5517 38.44 70.005 38.44ZM 85.9913 38.24C 84.0179 38.24 82.3779 37.64 81.0713 36.44C 79.7912 35.24 79.1512 33.5867 79.1512 31.48L 79.1512 12.76L 80.4313 12.76L 80.4313 20L 85.9513 20L 85.9513 21.12L 80.4313 21.12L 80.4313 31.48C 80.4313 33.24 80.9512 34.6267 81.9912 35.64C 83.0579 36.6267 84.3913 37.12 85.9913 37.12L 85.9913 38.24ZM 98.1159 37.36C 99.5026 37.36 100.823 37 102.076 36.28C 103.329 35.56 104.369 34.5733 105.196 33.32L 105.196 35.36C 104.209 36.4533 103.129 37.2533 101.956 37.76C 100.783 38.24 99.4493 38.48 97.9559 38.48C 96.3026 38.48 94.7426 38.04 93.2759 37.16C 91.8359 36.28 90.6759 35.1067 89.7959 33.64C 88.9426 32.1733 88.5159 30.6133 88.5159 28.96C 88.5159 27.1733 88.9426 25.5733 89.7959 24.16C 90.6493 22.72 91.8093 21.6 93.2759 20.8C 94.7693 20 96.4226 19.6 98.2359 19.6C 101.009 19.6 103.369 20.6933 105.316 22.88L 92.7559 35.28C 93.6359 36 94.4893 36.5333 95.3159 36.88C 96.1426 37.2 97.0759 37.36 98.1159 37.36ZM 89.7959 28.84C 89.7959 31.0533 90.5293 32.9467 91.9959 34.52L 103.716 22.88C 102.836 22.1067 101.983 21.56 101.156 21.24C 100.329 20.8933 99.3426 20.72 98.1959 20.72C 96.5693 20.72 95.1159 21.08 93.8359 21.8C 92.5826 22.4933 91.5959 23.4533 90.8759 24.68C 90.1559 25.9067 89.7959 27.2933 89.7959 28.84ZM 109.317 20L 110.597 20L 110.597 24.16C 111.13 22.8533 111.904 21.8267 112.917 21.08C 113.957 20.3333 115.13 19.96 116.437 19.96C 117.264 19.96 118.104 20.1333 118.957 20.48L 118.957 21.96C 118.184 21.3733 117.317 21.08 116.357 21.08C 115.397 21.08 114.464 21.3733 113.557 21.96C 112.677 22.5467 111.957 23.3333 111.397 24.32C 110.864 25.3067 110.597 26.36 110.597 27.48L 110.597 38L 109.317 38L 109.317 20Z"/>
</defs>
</svg>
