<svg width="508" height="72" viewBox="0 0 508 72" version="1.1" xmlns="http://www.w3.org/2000/svg" xmlns:xlink="http://www.w3.org/1999/xlink">
<title>Group</title>
<desc>Created using Figma</desc>
<g id="Canvas" transform="translate(387 1289)">
<g id="Group">
<g id="Vector">
<use xlink:href="#path0_stroke" transform="translate(-386.5 -1250)" fill="#FF1958"/>
</g>
<g id="Vector">
<use xlink:href="#path0_stroke" transform="matrix(1 0 0 -1 -386.5 -1217.84)" fill="#00C1FF"/>
</g>
<g id="Line">
<use xlink:href="#path1_stroke" transform="translate(-386.5 -1233.5)" fill="#CCBF14"/>
</g>
<g id="share your sound">
<use xlink:href="#path2_fill" transform="translate(-318 -1295)" fill="#FFFFFF"/>
</g>
</g>
</g>
<defs>
<path id="path0_stroke" d="M 0 12.0091C 0.123818 12.4935 0.12413 12.4934 0.124845 12.4932C 0.12562 12.493 0.126736 12.4928 0.128284 12.4924C 0.131379 12.4916 0.136079 12.4904 0.142373 12.4888C 0.154962 12.4856 0.173932 12.4808 0.199211 12.4744C 0.249769 12.4616 0.325565 12.4426 0.426036 12.4176C 0.626978 12.3675 0.926616 12.2936 1.32043 12.1982C 2.10807 12.0074 3.27241 11.7308 4.77733 11.3884C 7.78721 10.7034 12.1592 9.75456 17.6045 8.70021C 28.4955 6.59141 43.6769 4.06092 60.838 2.37402C 95.1827 -1.00201 137.367 -0.989143 168.971 12.4691L 169.363 11.5491C 137.515 -2.01313 95.1159 -2.00026 60.7401 1.37882C 43.5409 3.06947 28.3278 5.60531 17.4144 7.71845C 11.9574 8.77507 7.5747 9.72615 4.55542 10.4133C 3.04577 10.7569 1.87692 11.0345 1.08501 11.2263C 0.689056 11.3222 0.387332 11.3967 0.184357 11.4472C 0.0828685 11.4725 0.006067 11.4918 -0.0454834 11.5048C -0.0712587 11.5113 -0.0907212 11.5162 -0.1038 11.5196C -0.11034 11.5212 -0.115284 11.5225 -0.118623 11.5233C -0.120293 11.5238 -0.121591 11.5241 -0.122427 11.5243C -0.123324 11.5245 -0.123818 11.5247 0 12.0091ZM 168.971 12.4691C 200.729 25.993 225.929 32.6972 251.802 32.6584C 277.671 32.6196 304.167 25.8398 338.515 12.475L 338.153 11.5431C 303.852 24.8894 277.49 31.6198 251.801 31.6584C 226.116 31.6969 201.057 25.0456 169.363 11.5491L 168.971 12.4691ZM 338.515 12.475C 372.728 -0.837044 414.674 -0.84652 448.111 2.48998C 464.821 4.15743 479.389 6.65872 489.779 8.74308C 494.974 9.78521 499.124 10.723 501.974 11.4C 503.399 11.7385 504.499 12.0118 505.243 12.2003C 505.614 12.2945 505.897 12.3676 506.086 12.417C 506.181 12.4418 506.252 12.4606 506.3 12.4732C 506.323 12.4795 506.341 12.4842 506.353 12.4873C 506.359 12.4889 506.363 12.4901 506.366 12.4909C 506.368 12.4913 506.369 12.4915 506.369 12.4917C 506.37 12.4919 506.37 12.492 506.5 12.0091C 506.63 11.5262 506.629 11.526 506.628 11.5258C 506.627 11.5256 506.626 11.5253 506.625 11.5248C 506.621 11.524 506.617 11.5228 506.611 11.5211C 506.598 11.5178 506.58 11.5129 506.556 11.5065C 506.507 11.4936 506.435 11.4745 506.339 11.4495C 506.147 11.3995 505.863 11.3258 505.489 11.231C 504.741 11.0413 503.636 10.7668 502.205 10.427C 499.345 9.74762 495.184 8.80728 489.976 7.76261C 479.562 5.67338 464.96 3.16635 448.21 1.49493C 414.726 -1.84632 372.589 -1.8558 338.153 11.5431L 338.515 12.475Z"/>
<path id="path1_stroke" d="M 0 -5.55112e-17L 506.5 -5.55112e-17L 506.5 -1L 0 -1L 0 -5.55112e-17Z"/>
<path id="path2_fill" d="M 83.3143 29.33C 82.3543 29.33 81.5043 29.17 80.7643 28.85C 80.0243 28.51 79.4943 28.08 79.1743 27.56L 79.1743 25.97C 79.5543 26.83 80.0743 27.47 80.7343 27.89C 81.3943 28.29 82.2343 28.49 83.2543 28.49C 84.2343 28.49 85.0243 28.19 85.6243 27.59C 86.2243 26.97 86.5243 26.18 86.5243 25.22C 86.5243 24.4 86.3543 23.77 86.0143 23.33C 85.6743 22.87 85.1243 22.41 84.3643 21.95L 83.2243 21.29C 82.4043 20.79 81.7843 20.4 81.3643 20.12C 80.9643 19.82 80.6443 19.49 80.4043 19.13C 80.1643 18.75 80.0443 18.31 80.0443 17.81C 80.0443 17.01 80.3243 16.37 80.8843 15.89C 81.4443 15.41 82.1743 15.17 83.0743 15.17C 84.1743 15.17 85.0943 15.42 85.8343 15.92L 85.8343 17.24C 85.2143 16.42 84.3243 16.01 83.1643 16.01C 82.5243 16.01 82.0043 16.17 81.6043 16.49C 81.2043 16.81 81.0043 17.22 81.0043 17.72C 81.0043 18.16 81.1243 18.55 81.3643 18.89C 81.6043 19.21 81.9343 19.51 82.3543 19.79C 82.7943 20.07 83.5143 20.49 84.5143 21.05C 85.5343 21.63 86.2843 22.23 86.7643 22.85C 87.2443 23.45 87.4843 24.24 87.4843 25.22C 87.4843 26.46 87.0743 27.46 86.2543 28.22C 85.4543 28.96 84.4743 29.33 83.3143 29.33ZM 90.474 6.5L 91.434 6.5L 91.434 18.29C 91.854 17.39 92.564 16.65 93.564 16.07C 94.584 15.47 95.614 15.17 96.654 15.17C 98.554 15.17 100.014 15.69 101.034 16.73C 102.074 17.77 102.594 19.24 102.594 21.14L 102.594 29L 101.634 29L 101.634 21.14C 101.634 19.5 101.194 18.24 100.314 17.36C 99.454 16.46 98.234 16.01 96.654 16.01C 95.694 16.01 94.814 16.24 94.014 16.7C 93.214 17.14 92.584 17.76 92.124 18.56C 91.664 19.34 91.434 20.2 91.434 21.14L 91.434 29L 90.474 29L 90.474 6.5ZM 112.742 29.33C 111.462 29.33 110.272 29.01 109.172 28.37C 108.072 27.73 107.202 26.87 106.562 25.79C 105.922 24.69 105.602 23.51 105.602 22.25C 105.602 20.99 105.922 19.82 106.562 18.74C 107.202 17.64 108.072 16.77 109.172 16.13C 110.272 15.49 111.462 15.17 112.742 15.17C 114.042 15.17 115.272 15.52 116.432 16.22C 117.592 16.9 118.402 17.79 118.862 18.89L 118.862 15.5L 119.822 15.5L 119.822 29L 118.862 29L 118.862 25.64C 118.322 26.76 117.482 27.66 116.342 28.34C 115.222 29 114.022 29.33 112.742 29.33ZM 112.802 28.49C 113.902 28.49 114.922 28.21 115.862 27.65C 116.802 27.07 117.542 26.31 118.082 25.37C 118.642 24.41 118.922 23.37 118.922 22.25C 118.922 21.15 118.642 20.12 118.082 19.16C 117.522 18.2 116.772 17.44 115.832 16.88C 114.892 16.3 113.872 16.01 112.772 16.01C 111.672 16.01 110.642 16.3 109.682 16.88C 108.742 17.46 107.982 18.23 107.402 19.19C 106.842 20.15 106.562 21.18 106.562 22.28C 106.562 23.38 106.842 24.41 107.402 25.37C 107.982 26.31 108.752 27.07 109.712 27.65C 110.672 28.21 111.702 28.49 112.802 28.49ZM 123.609 15.5L 124.569 15.5L 124.569 18.62C 124.969 17.64 125.549 16.87 126.309 16.31C 127.089 15.75 127.969 15.47 128.949 15.47C 129.569 15.47 130.199 15.6 130.839 15.86L 130.839 16.97C 130.259 16.53 129.609 16.31 128.889 16.31C 128.169 16.31 127.469 16.53 126.789 16.97C 126.129 17.41 125.589 18 125.169 18.74C 124.769 19.48 124.569 20.27 124.569 21.11L 124.569 29L 123.609 29L 123.609 15.5ZM 138.88 28.52C 139.92 28.52 140.91 28.25 141.85 27.71C 142.79 27.17 143.57 26.43 144.19 25.49L 144.19 27.02C 143.45 27.84 142.64 28.44 141.76 28.82C 140.88 29.18 139.88 29.36 138.76 29.36C 137.52 29.36 136.35 29.03 135.25 28.37C 134.17 27.71 133.3 26.83 132.64 25.73C 132 24.63 131.68 23.46 131.68 22.22C 131.68 20.88 132 19.68 132.64 18.62C 133.28 17.54 134.15 16.7 135.25 16.1C 136.37 15.5 137.61 15.2 138.97 15.2C 141.05 15.2 142.82 16.02 144.28 17.66L 134.86 26.96C 135.52 27.5 136.16 27.9 136.78 28.16C 137.4 28.4 138.1 28.52 138.88 28.52ZM 132.64 22.13C 132.64 23.79 133.19 25.21 134.29 26.39L 143.08 17.66C 142.42 17.08 141.78 16.67 141.16 16.43C 140.54 16.17 139.8 16.04 138.94 16.04C 137.72 16.04 136.63 16.31 135.67 16.85C 134.73 17.37 133.99 18.09 133.45 19.01C 132.91 19.93 132.64 20.97 132.64 22.13ZM 159.452 34.97C 157.212 34.97 155.442 34.17 154.142 32.57L 154.142 31.04C 154.802 32.08 155.552 32.85 156.392 33.35C 157.232 33.87 158.212 34.13 159.332 34.13C 160.472 34.13 161.442 33.89 162.242 33.41C 163.062 32.93 163.682 32.27 164.102 31.43C 164.522 30.61 164.732 29.69 164.732 28.67L 164.732 26.39C 164.252 27.33 163.522 28.06 162.542 28.58C 161.582 29.08 160.532 29.33 159.392 29.33C 158.252 29.33 157.242 29.08 156.362 28.58C 155.482 28.08 154.792 27.38 154.292 26.48C 153.812 25.58 153.572 24.54 153.572 23.36L 153.572 15.5L 154.532 15.5L 154.532 23.36C 154.532 24.44 154.752 25.37 155.192 26.15C 155.652 26.91 156.252 27.49 156.992 27.89C 157.732 28.29 158.542 28.49 159.422 28.49C 160.382 28.49 161.272 28.26 162.092 27.8C 162.912 27.32 163.552 26.69 164.012 25.91C 164.492 25.11 164.732 24.26 164.732 23.36L 164.732 15.5L 165.692 15.5L 165.692 28.58C 165.692 29.78 165.442 30.86 164.942 31.82C 164.462 32.8 163.752 33.57 162.812 34.13C 161.872 34.69 160.752 34.97 159.452 34.97ZM 175.585 29.48C 174.225 29.48 172.995 29.15 171.895 28.49C 170.795 27.81 169.935 26.92 169.315 25.82C 168.695 24.7 168.385 23.49 168.385 22.19C 168.385 20.91 168.695 19.72 169.315 18.62C 169.955 17.52 170.815 16.65 171.895 16.01C 172.995 15.35 174.215 15.02 175.555 15.02C 176.875 15.02 178.075 15.35 179.155 16.01C 180.255 16.65 181.115 17.52 181.735 18.62C 182.355 19.72 182.665 20.91 182.665 22.19C 182.665 23.53 182.365 24.76 181.765 25.88C 181.165 26.98 180.325 27.86 179.245 28.52C 178.185 29.16 176.965 29.48 175.585 29.48ZM 175.585 28.64C 176.725 28.64 177.765 28.35 178.705 27.77C 179.645 27.19 180.375 26.42 180.895 25.46C 181.435 24.48 181.705 23.41 181.705 22.25C 181.705 21.11 181.435 20.05 180.895 19.07C 180.355 18.09 179.615 17.31 178.675 16.73C 177.735 16.15 176.695 15.86 175.555 15.86C 174.415 15.86 173.365 16.16 172.405 16.76C 171.465 17.34 170.715 18.12 170.155 19.1C 169.615 20.08 169.345 21.14 169.345 22.28C 169.345 23.42 169.615 24.48 170.155 25.46C 170.715 26.42 171.465 27.19 172.405 27.77C 173.365 28.35 174.425 28.64 175.585 28.64ZM 191.6 29.33C 189.7 29.33 188.23 28.81 187.19 27.77C 186.17 26.73 185.66 25.26 185.66 23.36L 185.66 15.5L 186.62 15.5L 186.62 23.36C 186.62 25 187.05 26.27 187.91 27.17C 188.79 28.05 190.02 28.49 191.6 28.49C 192.56 28.49 193.44 28.28 194.24 27.86C 195.04 27.42 195.67 26.81 196.13 26.03C 196.59 25.25 196.82 24.36 196.82 23.36L 196.82 15.5L 197.78 15.5L 197.78 29L 196.82 29L 196.82 26.48C 196.36 27.32 195.67 28.01 194.75 28.55C 193.83 29.07 192.78 29.33 191.6 29.33ZM 201.568 15.5L 202.528 15.5L 202.528 18.62C 202.928 17.64 203.508 16.87 204.268 16.31C 205.048 15.75 205.928 15.47 206.908 15.47C 207.528 15.47 208.158 15.6 208.798 15.86L 208.798 16.97C 208.218 16.53 207.568 16.31 206.848 16.31C 206.128 16.31 205.428 16.53 204.748 16.97C 204.088 17.41 203.548 18 203.128 18.74C 202.728 19.48 202.528 20.27 202.528 21.11L 202.528 29L 201.568 29L 201.568 15.5ZM 221.039 29.33C 220.079 29.33 219.229 29.17 218.489 28.85C 217.749 28.51 217.219 28.08 216.899 27.56L 216.899 25.97C 217.279 26.83 217.799 27.47 218.459 27.89C 219.119 28.29 219.959 28.49 220.979 28.49C 221.959 28.49 222.749 28.19 223.349 27.59C 223.949 26.97 224.249 26.18 224.249 25.22C 224.249 24.4 224.079 23.77 223.739 23.33C 223.399 22.87 222.849 22.41 222.089 21.95L 220.949 21.29C 220.129 20.79 219.509 20.4 219.089 20.12C 218.689 19.82 218.369 19.49 218.129 19.13C 217.889 18.75 217.769 18.31 217.769 17.81C 217.769 17.01 218.049 16.37 218.609 15.89C 219.169 15.41 219.899 15.17 220.799 15.17C 221.899 15.17 222.819 15.42 223.559 15.92L 223.559 17.24C 222.939 16.42 222.049 16.01 220.889 16.01C 220.249 16.01 219.729 16.17 219.329 16.49C 218.929 16.81 218.729 17.22 218.729 17.72C 218.729 18.16 218.849 18.55 219.089 18.89C 219.329 19.21 219.659 19.51 220.079 19.79C 220.519 20.07 221.239 20.49 222.239 21.05C 223.259 21.63 224.009 22.23 224.489 22.85C 224.969 23.45 225.209 24.24 225.209 25.22C 225.209 26.46 224.799 27.46 223.979 28.22C 223.179 28.96 222.199 29.33 221.039 29.33ZM 234.619 29.48C 233.259 29.48 232.029 29.15 230.929 28.49C 229.829 27.81 228.969 26.92 228.349 25.82C 227.729 24.7 227.419 23.49 227.419 22.19C 227.419 20.91 227.729 19.72 228.349 18.62C 228.989 17.52 229.849 16.65 230.929 16.01C 232.029 15.35 233.249 15.02 234.589 15.02C 235.909 15.02 237.109 15.35 238.189 16.01C 239.289 16.65 240.149 17.52 240.769 18.62C 241.389 19.72 241.699 20.91 241.699 22.19C 241.699 23.53 241.399 24.76 240.799 25.88C 240.199 26.98 239.359 27.86 238.279 28.52C 237.219 29.16 235.999 29.48 234.619 29.48ZM 234.619 28.64C 235.759 28.64 236.799 28.35 237.739 27.77C 238.679 27.19 239.409 26.42 239.929 25.46C 240.469 24.48 240.739 23.41 240.739 22.25C 240.739 21.11 240.469 20.05 239.929 19.07C 239.389 18.09 238.649 17.31 237.709 16.73C 236.769 16.15 235.729 15.86 234.589 15.86C 233.449 15.86 232.399 16.16 231.439 16.76C 230.499 17.34 229.749 18.12 229.189 19.1C 228.649 20.08 228.379 21.14 228.379 22.28C 228.379 23.42 228.649 24.48 229.189 25.46C 229.749 26.42 230.499 27.19 231.439 27.77C 232.399 28.35 233.459 28.64 234.619 28.64ZM 250.633 29.33C 248.733 29.33 247.263 28.81 246.223 27.77C 245.203 26.73 244.693 25.26 244.693 23.36L 244.693 15.5L 245.653 15.5L 245.653 23.36C 245.653 25 246.083 26.27 246.943 27.17C 247.823 28.05 249.053 28.49 250.633 28.49C 251.593 28.49 252.473 28.28 253.273 27.86C 254.073 27.42 254.703 26.81 255.163 26.03C 255.623 25.25 255.853 24.36 255.853 23.36L 255.853 15.5L 256.813 15.5L 256.813 29L 255.853 29L 255.853 26.48C 255.393 27.32 254.703 28.01 253.783 28.55C 252.863 29.07 251.813 29.33 250.633 29.33ZM 260.601 15.5L 261.561 15.5L 261.561 18.5C 262.001 17.5 262.751 16.7 263.811 16.1C 264.871 15.48 266.041 15.17 267.321 15.17C 268.981 15.17 270.291 15.7 271.251 16.76C 272.231 17.8 272.721 19.26 272.721 21.14L 272.721 29L 271.761 29L 271.761 21.14C 271.761 19.52 271.361 18.26 270.561 17.36C 269.781 16.46 268.681 16.01 267.261 16.01C 266.221 16.01 265.261 16.25 264.381 16.73C 263.521 17.19 262.831 17.83 262.311 18.65C 261.811 19.47 261.561 20.4 261.561 21.44L 261.561 29L 260.601 29L 260.601 15.5ZM 282.869 29.33C 281.569 29.33 280.369 29.01 279.269 28.37C 278.189 27.73 277.329 26.87 276.689 25.79C 276.049 24.71 275.729 23.53 275.729 22.25C 275.729 20.97 276.049 19.79 276.689 18.71C 277.329 17.63 278.189 16.77 279.269 16.13C 280.369 15.49 281.569 15.17 282.869 15.17C 284.129 15.17 285.329 15.51 286.469 16.19C 287.609 16.85 288.449 17.72 288.989 18.8L 288.989 6.5L 289.949 6.5L 289.949 29L 288.989 29L 288.989 25.73C 288.389 26.81 287.519 27.68 286.379 28.34C 285.259 29 284.089 29.33 282.869 29.33ZM 282.839 28.49C 283.939 28.49 284.959 28.21 285.899 27.65C 286.859 27.07 287.619 26.31 288.179 25.37C 288.759 24.41 289.049 23.38 289.049 22.28C 289.049 21.18 288.759 20.15 288.179 19.19C 287.619 18.23 286.859 17.46 285.899 16.88C 284.959 16.3 283.939 16.01 282.839 16.01C 281.739 16.01 280.719 16.3 279.779 16.88C 278.839 17.44 278.089 18.2 277.529 19.16C 276.969 20.12 276.689 21.15 276.689 22.25C 276.689 23.37 276.959 24.41 277.499 25.37C 278.059 26.31 278.809 27.07 279.749 27.65C 280.709 28.21 281.739 28.49 282.839 28.49Z"/>
</defs>
</svg>
