<svg width="33" height="33" viewBox="0 0 33 33" version="1.1" xmlns="http://www.w3.org/2000/svg" xmlns:xlink="http://www.w3.org/1999/xlink">
<title>play_button</title>
<desc>Created using Figma</desc>
<g id="Canvas" transform="translate(-6383 -699)">
<g id="play_button">
<g id="Ellipse" filter="url(#filter0_iii)">
<use xlink:href="#path0_fill" transform="translate(6383 699)" fill="#00435C"/>
</g>
<g id="upload">
<use xlink:href="#path1_fill" transform="translate(6385 710)" fill="#FFFFFF"/>
</g>
</g>
</g>
<defs>
<filter id="filter0_iii" filterUnits="userSpaceOnUse" x="6383" y="698" width="34" height="35" color-interpolation-filters="sRGB">
<feFlood flood-opacity="0" result="BackgroundImageFix"/>
<feBlend mode="normal" in="SourceGraphic" in2="BackgroundImageFix" result="shape"/>
<feColorMatrix in="SourceAlpha" type="matrix" values="0 0 0 0 0 0 0 0 0 0 0 0 0 0 0 0 0 0 255 0" result="hardAlpha"/>
<feOffset dx="0" dy="1"/>
<feGaussianBlur stdDeviation="2.5"/>
<feComposite in2="hardAlpha" operator="arithmetic" k2="-1" k3="1"/>
<feColorMatrix type="matrix" values="0 0 0 0 1 0 0 0 0 0.0980392 0 0 0 0 0.345098 0 0 0 1 0"/>
<feBlend mode="normal" in2="shape" result="effect1_innerShadow"/>
<feColorMatrix in="SourceAlpha" type="matrix" values="0 0 0 0 0 0 0 0 0 0 0 0 0 0 0 0 0 0 255 0" result="hardAlpha"/>
<feOffset dx="0" dy="-1"/>
<feGaussianBlur stdDeviation="2.5"/>
<feComposite in2="hardAlpha" operator="arithmetic" k2="-1" k3="1"/>
<feColorMatrix type="matrix" values="0 0 0 0 0.8 0 0 0 0 0.74902 0 0 0 0 0.0784314 0 0 0 1 0"/>
<feBlend mode="normal" in2="effect1_innerShadow" result="effect2_innerShadow"/>
<feColorMatrix in="SourceAlpha" type="matrix" values="0 0 0 0 0 0 0 0 0 0 0 0 0 0 0 0 0 0 255 0" result="hardAlpha"/>
<feOffset dx="1" dy="0"/>
<feGaussianBlur stdDeviation="2.5"/>
<feComposite in2="hardAlpha" operator="arithmetic" k2="-1" k3="1"/>
<feColorMatrix type="matrix" values="0 0 0 0 0 0 0 0 0 0.756863 0 0 0 0 1 0 0 0 1 0"/>
<feBlend mode="normal" in2="effect2_innerShadow" result="effect3_innerShadow"/>
</filter>
<path id="path0_fill" d="M 33 16.5C 33 25.6127 25.6127 33 16.5 33C 7.3873 33 0 25.6127 0 16.5C 0 7.3873 7.3873 0 16.5 0C 25.6127 0 33 7.3873 33 16.5Z"/>
<path id="path1_fill" d="M 2.63806 9.099C 2.06806 9.099 1.62706 8.943 1.31506 8.631C 1.00906 8.319 0.856063 7.878 0.856063 7.308L 0.856063 4.95L 1.14406 4.95L 1.14406 7.308C 1.14406 7.8 1.27306 8.181 1.53106 8.451C 1.79506 8.715 2.16406 8.847 2.63806 8.847C 2.92606 8.847 3.19006 8.784 3.43006 8.658C 3.67006 8.526 3.85906 8.343 3.99706 8.109C 4.13506 7.875 4.20406 7.608 4.20406 7.308L 4.20406 4.95L 4.49206 4.95L 4.49206 9L 4.20406 9L 4.20406 8.244C 4.06606 8.496 3.85906 8.703 3.58306 8.865C 3.30706 9.021 2.99206 9.099 2.63806 9.099ZM 5.62852 4.95L 5.91652 4.95L 5.91652 5.94C 6.07852 5.616 6.33052 5.355 6.67252 5.157C 7.01452 4.953 7.37452 4.851 7.75252 4.851C 8.14252 4.851 8.49952 4.947 8.82352 5.139C 9.15352 5.331 9.41452 5.589 9.60652 5.913C 9.79852 6.237 9.89452 6.591 9.89452 6.975C 9.89452 7.359 9.79852 7.713 9.60652 8.037C 9.41452 8.361 9.15352 8.619 8.82352 8.811C 8.49952 9.003 8.14252 9.099 7.75252 9.099C 7.38652 9.099 7.03252 9 6.69052 8.802C 6.35452 8.604 6.09652 8.343 5.91652 8.019L 5.91652 10.8L 5.62852 10.8L 5.62852 4.95ZM 7.77052 8.847C 8.10052 8.847 8.40652 8.763 8.68852 8.595C 8.97052 8.421 9.19252 8.193 9.35452 7.911C 9.52252 7.623 9.60652 7.311 9.60652 6.975C 9.60652 6.645 9.52252 6.336 9.35452 6.048C 9.18652 5.76 8.96152 5.532 8.67952 5.364C 8.39752 5.19 8.09152 5.103 7.76152 5.103C 7.43152 5.103 7.12252 5.19 6.83452 5.364C 6.55252 5.538 6.32452 5.769 6.15052 6.057C 5.98252 6.345 5.89852 6.654 5.89852 6.984C 5.89852 7.314 5.98252 7.623 6.15052 7.911C 6.32452 8.193 6.55552 8.421 6.84352 8.595C 7.13152 8.763 7.44052 8.847 7.77052 8.847ZM 12.3355 9.081C 12.0535 9.081 11.7955 9.018 11.5615 8.892C 11.3275 8.76 11.1415 8.577 11.0035 8.343C 10.8655 8.109 10.7965 7.848 10.7965 7.56L 10.7965 2.25L 11.0845 2.25L 11.0845 7.56C 11.0845 7.8 11.1385 8.016 11.2465 8.208C 11.3605 8.4 11.5135 8.553 11.7055 8.667C 11.8975 8.775 12.1075 8.829 12.3355 8.829L 12.3355 9.081ZM 14.9198 9.144C 14.5118 9.144 14.1428 9.045 13.8128 8.847C 13.4828 8.643 13.2248 8.376 13.0388 8.046C 12.8528 7.71 12.7598 7.347 12.7598 6.957C 12.7598 6.573 12.8528 6.216 13.0388 5.886C 13.2308 5.556 13.4888 5.295 13.8128 5.103C 14.1428 4.905 14.5088 4.806 14.9108 4.806C 15.3068 4.806 15.6668 4.905 15.9908 5.103C 16.3208 5.295 16.5788 5.556 16.7648 5.886C 16.9508 6.216 17.0438 6.573 17.0438 6.957C 17.0438 7.359 16.9538 7.728 16.7738 8.064C 16.5938 8.394 16.3418 8.658 16.0178 8.856C 15.6998 9.048 15.3338 9.144 14.9198 9.144ZM 14.9198 8.892C 15.2618 8.892 15.5738 8.805 15.8558 8.631C 16.1378 8.457 16.3568 8.226 16.5128 7.938C 16.6748 7.644 16.7558 7.323 16.7558 6.975C 16.7558 6.633 16.6748 6.315 16.5128 6.021C 16.3508 5.727 16.1288 5.493 15.8468 5.319C 15.5648 5.145 15.2528 5.058 14.9108 5.058C 14.5688 5.058 14.2538 5.148 13.9658 5.328C 13.6838 5.502 13.4588 5.736 13.2908 6.03C 13.1288 6.324 13.0478 6.642 13.0478 6.984C 13.0478 7.326 13.1288 7.644 13.2908 7.938C 13.4588 8.226 13.6838 8.457 13.9658 8.631C 14.2538 8.805 14.5718 8.892 14.9198 8.892ZM 19.85 9.099C 19.466 9.099 19.109 9.003 18.779 8.811C 18.449 8.619 18.188 8.361 17.996 8.037C 17.804 7.707 17.708 7.353 17.708 6.975C 17.708 6.597 17.804 6.246 17.996 5.922C 18.188 5.592 18.449 5.331 18.779 5.139C 19.109 4.947 19.466 4.851 19.85 4.851C 20.24 4.851 20.609 4.956 20.957 5.166C 21.305 5.37 21.548 5.637 21.686 5.967L 21.686 4.95L 21.974 4.95L 21.974 9L 21.686 9L 21.686 7.992C 21.524 8.328 21.272 8.598 20.93 8.802C 20.594 9 20.234 9.099 19.85 9.099ZM 19.868 8.847C 20.198 8.847 20.504 8.763 20.786 8.595C 21.068 8.421 21.29 8.193 21.452 7.911C 21.62 7.623 21.704 7.311 21.704 6.975C 21.704 6.645 21.62 6.336 21.452 6.048C 21.284 5.76 21.059 5.532 20.777 5.364C 20.495 5.19 20.189 5.103 19.859 5.103C 19.529 5.103 19.22 5.19 18.932 5.364C 18.65 5.538 18.422 5.769 18.248 6.057C 18.08 6.345 17.996 6.654 17.996 6.984C 17.996 7.314 18.08 7.623 18.248 7.911C 18.422 8.193 18.653 8.421 18.941 8.595C 19.229 8.763 19.538 8.847 19.868 8.847ZM 25.018 9.099C 24.628 9.099 24.268 9.003 23.938 8.811C 23.614 8.619 23.356 8.361 23.164 8.037C 22.972 7.713 22.876 7.359 22.876 6.975C 22.876 6.591 22.972 6.237 23.164 5.913C 23.356 5.589 23.614 5.331 23.938 5.139C 24.268 4.947 24.628 4.851 25.018 4.851C 25.396 4.851 25.756 4.953 26.098 5.157C 26.44 5.355 26.692 5.616 26.854 5.94L 26.854 2.25L 27.142 2.25L 27.142 9L 26.854 9L 26.854 8.019C 26.674 8.343 26.413 8.604 26.071 8.802C 25.735 9 25.384 9.099 25.018 9.099ZM 25.009 8.847C 25.339 8.847 25.645 8.763 25.927 8.595C 26.215 8.421 26.443 8.193 26.611 7.911C 26.785 7.623 26.872 7.314 26.872 6.984C 26.872 6.654 26.785 6.345 26.611 6.057C 26.443 5.769 26.215 5.538 25.927 5.364C 25.645 5.19 25.339 5.103 25.009 5.103C 24.679 5.103 24.373 5.19 24.091 5.364C 23.809 5.532 23.584 5.76 23.416 6.048C 23.248 6.336 23.164 6.645 23.164 6.975C 23.164 7.311 23.245 7.623 23.407 7.911C 23.575 8.193 23.8 8.421 24.082 8.595C 24.37 8.763 24.679 8.847 25.009 8.847Z"/>
</defs>
</svg>
